<svg xmlns="http://www.w3.org/2000/svg" viewBox="0 0 64 64"><defs><style>.cls-1{fill:#fa8f82;}.cls-2{fill:#91d7f2;}.cls-3{fill:#85c5de;}.cls-4{fill:#807a6e;}.cls-5{fill:#edf2ff;}.cls-6{fill:#524d46;}.cls-7{fill:#bed2e8;}.cls-8{fill:#e68477;}</style></defs><title>88_Travel Journal</title><g id="_88_Travel_Journal" data-name="88_Travel Journal"><path class="cls-1" d="M20,2H17.3333a2.0039,2.0039,0,0,0-2,2V6H22V4A2.0038,2.0038,0,0,0,20,2Z"/><path class="cls-2" d="M48,4.6667H12.6667V54H51.3333V8A3.3364,3.3364,0,0,0,48,4.6667Z"/><path class="cls-3" d="M19.3333,4.6667A3.3345,3.3345,0,0,0,16,8V54H12.6667V4.6667Z"/><path class="cls-4" d="M50.6667,26h-8a6,6,0,1,0,0,12h8A3.3364,3.3364,0,0,0,54,34.6667V29.3333A3.3364,3.3364,0,0,0,50.6667,26Z"/><circle class="cls-5" cx="42.6667" cy="32" r="3.3333"/><path class="cls-5" d="M42.6667,48.6667H32a3.3364,3.3364,0,0,1-3.3333-3.3334,2.0039,2.0039,0,0,0-2-2H21.3333A3.3364,3.3364,0,0,1,18,40V34.6667a3.3364,3.3364,0,0,1,3.3333-3.3334,2.0038,2.0038,0,0,0,2-2V26.6667a.6667.6667,0,0,1,1.3334,0v2.6666a3.3365,3.3365,0,0,1-3.3334,3.3334,2.0039,2.0039,0,0,0-2,2V40a2.0039,2.0039,0,0,0,2,2h5.3334A3.3364,3.3364,0,0,1,30,45.3333a2.0038,2.0038,0,0,0,2,2H42.6667a.6667.6667,0,0,1,0,1.3334Z"/><path class="cls-4" d="M45.3333,14H34.6667a.6667.6667,0,1,1,0-1.3333H45.3333a.6667.6667,0,1,1,0,1.3333Z"/><path class="cls-4" d="M40,19.3333H34.6667a.6667.6667,0,1,1,0-1.3333H40a.6667.6667,0,1,1,0,1.3333Z"/><path class="cls-6" d="M13.3333,4.6667A3.3364,3.3364,0,0,0,10,8V56h1.3333a2.0039,2.0039,0,0,1,2-2H14V4.6667Z"/><path class="cls-5" d="M13.3333,52.6667a3.3333,3.3333,0,1,0,0,6.6666H48A3.3364,3.3364,0,0,0,51.3333,56V52.6667Z"/><path class="cls-7" d="M19.3333,59.3333h-6a3.3333,3.3333,0,1,1,0-6.6666H16V56A3.3345,3.3345,0,0,0,19.3333,59.3333Z"/><path class="cls-1" d="M15.3333,58.6667a3.3334,3.3334,0,0,0,6.6667,0v-6H15.3333Z"/><path class="cls-1" d="M24,7.3333a6.01,6.01,0,0,0-6,6.01A14.6489,14.6489,0,0,0,20.8,21.7318a12.2951,12.2951,0,0,0,.7864.9557,3.2815,3.2815,0,0,0,4.823.0026,11.7326,11.7326,0,0,0,.7916-.9583A14.655,14.655,0,0,0,30,13.3333,6.0082,6.0082,0,0,0,24,7.3333Zm0,4a2,2,0,1,1-2,2A2.0039,2.0039,0,0,1,24,11.3333Z"/><path class="cls-8" d="M22.8,21.7334a14.5311,14.5311,0,0,1-2.8-8.4A5.9669,5.9669,0,0,1,25.0133,7.44,4.2211,4.2211,0,0,0,24,7.3333a6.0091,6.0091,0,0,0-6,6,14.5311,14.5311,0,0,0,2.8,8.4c.24.3467.5066.64.7734.96A3.2832,3.2832,0,0,0,24,23.7334a3.2247,3.2247,0,0,0,1.0133-.16,3.1118,3.1118,0,0,1-1.44-.88C23.3066,22.3734,23.04,22.08,22.8,21.7334Z"/><path class="cls-6" d="M44.6667,38h-2a6,6,0,1,1,0-12h2a6,6,0,1,0,0,12Z"/></g></svg>