<svg xmlns="http://www.w3.org/2000/svg" viewBox="0 0 64 64"><defs><style>.cls-1{fill:#f1b695;}.cls-2{fill:#f8d5b9;}.cls-3{fill:#ea9672;}.cls-4{fill:#edf2ff;}.cls-5{fill:#fa8f82;}.cls-6{fill:#e68477;}</style></defs><title>1_Map</title><g id="_1_Map" data-name="1_Map"><path class="cls-1" d="M20.08,10.64a5.2742,5.2742,0,0,0-1.4134-.5067A6.45,6.45,0,0,0,17.4134,10H14.5868l-1.2535,3.3333L8,12.5841,5.3066,13.92A6.0357,6.0357,0,0,0,2,19.3066v30.72a6.0132,6.0132,0,0,0,8.6934,5.3867l1.8133-.9334a4.6673,4.6673,0,0,1,2.08-.48h2.8266a3.9671,3.9671,0,0,1,1.2533.1867,5.04,5.04,0,0,1,.8266.2933Z"/><path class="cls-2" d="M33.4134,15.3333H30.5868a4.6686,4.6686,0,0,1-2.08-.48L20.08,10.64a5.2742,5.2742,0,0,0-1.4134-.5067V54.1867a3.06,3.06,0,0,1,.8266.2933L27.92,58.6934a5.783,5.783,0,0,0,2.6667.64h2.8266Z"/><path class="cls-1" d="M46.5868,10s-.8534.0534-1.2535.1333A5.27,5.27,0,0,0,43.92,10.64l-8.4268,4.2134a4.6683,4.6683,0,0,1-2.08.48H32v44h1.4134a5.7839,5.7839,0,0,0,2.6667-.64L44.5067,54.48a3.0614,3.0614,0,0,1,.8266-.2933A6.9153,6.9153,0,0,1,46.5868,54Z"/><path class="cls-2" d="M62,19.3066v30.72a6.0132,6.0132,0,0,1-8.6934,5.3867L51.4933,54.48a4.6671,4.6671,0,0,0-2.08-.48H46.5868a3.9684,3.9684,0,0,0-1.2535.1867V10.1333A6.4525,6.4525,0,0,1,46.5868,10h2.8266a5.784,5.784,0,0,1,2.6667.64l6.6133,3.28A6.0354,6.0354,0,0,1,62,19.3066Z"/><path class="cls-3" d="M5.3333,13.9466l7.0935-.5332-1.0935.5332A5.9426,5.9426,0,0,0,8,19.3066v30.72a5.96,5.96,0,0,0,2.8534,5.12c.0533.0267.08.0534.1333.08l-.32.16a5.6738,5.6738,0,0,1-2.6934.6667,6.0412,6.0412,0,0,1-3.12-.9068A5.96,5.96,0,0,1,2,50.0267v-30.72A5.9426,5.9426,0,0,1,5.3333,13.9466Z"/><path class="cls-4" d="M53.3333,46h-8a6.0066,6.0066,0,0,1-6-6V29.3333a4.6722,4.6722,0,0,0-4.6666-4.6666H32a4.6723,4.6723,0,0,0-4.6667,4.6666V40a6.0066,6.0066,0,0,1-6,6H16a6.0066,6.0066,0,0,1-6-6V24a.6667.6667,0,1,1,1.3333,0V40A4.6724,4.6724,0,0,0,16,44.6667h5.3333A4.6723,4.6723,0,0,0,26,40V29.3333a6.0066,6.0066,0,0,1,6-6h2.6667a6.0066,6.0066,0,0,1,6,6V40a4.6723,4.6723,0,0,0,4.6666,4.6667h8a.6667.6667,0,1,1,0,1.3333Z"/><path class="cls-5" d="M10.6667,4.6667a6.009,6.009,0,0,0-6,6.0117,14.6351,14.6351,0,0,0,2.7994,8.388c.2527.3372.5066.6458.7865.9531a3.2547,3.2547,0,0,0,2.4128,1.06h.0013a3.2561,3.2561,0,0,0,2.414-1.0586c.28-.3086.5339-.6172.7878-.9557a14.6415,14.6415,0,0,0,2.7982-8.3984A6.0066,6.0066,0,0,0,10.6667,4.6667Zm0,4a2,2,0,1,1-2,2A2.0022,2.0022,0,0,1,10.6667,8.6667Z"/><path class="cls-5" d="M53.3333,26.9063a6.009,6.009,0,0,0-6,6.0117,14.6282,14.6282,0,0,0,2.8,8.388,8.9132,8.9132,0,0,0,.7813.9492A3.2282,3.2282,0,0,0,53.332,43.34h.0013a3.2032,3.2032,0,0,0,2.3933-1.0559,9.4026,9.4026,0,0,0,.8086-.9792,14.6341,14.6341,0,0,0,2.7981-8.3984A6.0066,6.0066,0,0,0,53.3333,26.9063Zm0,4a2,2,0,1,1-2,2A2.0021,2.0021,0,0,1,53.3333,30.9063Z"/><path class="cls-1" d="M19.3333,54.1867v.08l-.1867-.0265A.4951.4951,0,0,1,19.3333,54.1867Z"/><path class="cls-6" d="M9.4666,19.0667a14.5308,14.5308,0,0,1-2.8-8.4A5.9667,5.9667,0,0,1,11.68,4.7733a4.2222,4.2222,0,0,0-1.0133-.1066,6.009,6.009,0,0,0-6,6,14.5308,14.5308,0,0,0,2.8,8.4c.24.3467.5067.64.7735.96a3.2828,3.2828,0,0,0,2.4266,1.04,3.2256,3.2256,0,0,0,1.0133-.16,3.1113,3.1113,0,0,1-1.44-.88C9.9733,19.7067,9.7067,19.4134,9.4666,19.0667Z"/><path class="cls-6" d="M52.1333,41.3063a14.5311,14.5311,0,0,1-2.8-8.4,5.9667,5.9667,0,0,1,5.0134-5.8934,4.2174,4.2174,0,0,0-1.0134-.1066,6.0091,6.0091,0,0,0-6,6,14.5311,14.5311,0,0,0,2.8,8.4c.24.3467.5067.64.7734.96a3.2834,3.2834,0,0,0,2.4266,1.04,3.2257,3.2257,0,0,0,1.0134-.16,3.1116,3.1116,0,0,1-1.44-.88C52.64,41.9463,52.3734,41.653,52.1333,41.3063Z"/></g></svg>