<svg xmlns="http://www.w3.org/2000/svg" viewBox="0 0 64 64"><defs><style>.cls-1{fill:#f0e486;}.cls-2{fill:#d9ce79;}.cls-3{fill:#fa8f82;}.cls-4{fill:#e68477;}.cls-5{fill:#edf2ff;}.cls-6{fill:#807a6e;}.cls-7{fill:#f8d5b9;}.cls-8{fill:#f1b695;}.cls-9{fill:#8de06c;}.cls-10{fill:#80cc62;}.cls-11{fill:#a1ff7b;}.cls-12{fill:#6593a6;}</style></defs><title>59_Wallet</title><g id="_59_Wallet" data-name="59_Wallet"><path class="cls-1" d="M8,47.3333a4.6723,4.6723,0,0,1-4.6667-4.6666H2V48a6.0082,6.0082,0,0,0,6,6H53.3333a6.0082,6.0082,0,0,0,6-6v-.6667Z"/><path class="cls-2" d="M15.3333,54H8a6.0091,6.0091,0,0,1-6-6V42.6667H3.3333A4.689,4.689,0,0,0,8,47.3333H9.3333V48A6.0091,6.0091,0,0,0,15.3333,54Z"/><path class="cls-3" d="M59.3333,26V48.6667H8a6.0091,6.0091,0,0,1-6-6V16a6.0566,6.0566,0,0,1,1.3333-3.7868v9.12A4.6891,4.6891,0,0,0,8,26Z"/><path class="cls-4" d="M9.36,48.6667H8a6.0091,6.0091,0,0,1-6-6V16a6.0566,6.0566,0,0,1,1.3333-3.7868v9.12A4.6891,4.6891,0,0,0,8,26H9.3333V48A5.5692,5.5692,0,0,0,9.36,48.6667Z"/><path class="cls-5" d="M58.6667,31.15h-8a5.9994,5.9994,0,1,0,0,11.9987h8A3.3364,3.3364,0,0,0,62,39.8151v-5.332A3.3364,3.3364,0,0,0,58.6667,31.15Z"/><path class="cls-6" d="M50.6667,33.8164A3.3327,3.3327,0,1,0,54,37.1484,3.3353,3.3353,0,0,0,50.6667,33.8164Z"/><path class="cls-7" d="M53.3333,10H8A6,6,0,0,0,8,22H53.3333A4.6723,4.6723,0,0,1,58,26.6667h1.3333V16A6.0074,6.0074,0,0,0,53.3333,10Z"/><path class="cls-8" d="M15.3333,10a6.0091,6.0091,0,0,0-6,6v6H8A6,6,0,0,1,8,10Z"/><path class="cls-9" d="M50.6667,12.6667H8a6.0074,6.0074,0,0,0-6,6l3.3333,6H56.6667v-6A6.0074,6.0074,0,0,0,50.6667,12.6667Z"/><path class="cls-10" d="M10.32,12.6667A6.1909,6.1909,0,0,0,9.3333,16v8.6667h-4L2,18.6667a6.0091,6.0091,0,0,1,6-6Z"/><path class="cls-11" d="M53.3333,20.6667A4.6723,4.6723,0,0,1,48.6667,16,.6672.6672,0,0,0,48,15.3333H10.6667A.6672.6672,0,0,0,10,16a4.6723,4.6723,0,0,1-4.6667,4.6667.667.667,0,0,0-.6666.6666V24a.6671.6671,0,0,0,.6666.6667h48A.6672.6672,0,0,0,54,24V21.3333A.6671.6671,0,0,0,53.3333,20.6667Z"/><path class="cls-9" d="M39.151,23.6667a11.3381,11.3381,0,0,0-19.6354,0l-.5781,1H39.7292Z"/><path class="cls-1" d="M59.3333,26.6667v.6666H8a6.0176,6.0176,0,0,1-6-6V16a6.0566,6.0566,0,0,1,1.3333-3.7868V16A4.68,4.68,0,0,0,8,20.6667H53.3333A6.0176,6.0176,0,0,1,59.3333,26.6667Z"/><path class="cls-2" d="M9.3333,20.6667v6.6666H8a6.0091,6.0091,0,0,1-6-6V16a6.0566,6.0566,0,0,1,1.3333-3.7868V16A4.6891,4.6891,0,0,0,8,20.6667Z"/><path class="cls-12" d="M59.3066,48.6667A5.5692,5.5692,0,0,0,59.3333,48v.6667Z"/></g></svg>